<svg xmlns="http://www.w3.org/2000/svg" fill="none" viewBox="0 0 48 48" height="64" width="64"><path fill="#98b3e3" d="M3.58565 14.2362C3.79537 12.1032 5.25587 10.3881 7.37067 10.0397C10.3535 9.54832 15.5706 9 24 9C32.4294 9 37.6465 9.54832 40.6293 10.0397C42.7441 10.3881 44.2046 12.1032 44.4143 14.2362C44.6894 17.0334 45 21.4265 45 27C45 32.5735 44.6894 36.9666 44.4143 39.7638C44.2046 41.8968 42.7441 43.6119 40.6293 43.9603C37.6465 44.4517 32.4294 45 24 45C15.5706 45 10.3535 44.4517 7.37067 43.9603C5.25587 43.6119 3.79537 41.8968 3.58565 39.7638C3.31064 36.9666 3 32.5735 3 27C3 21.4265 3.31064 17.0334 3.58565 14.2362Z"></path><circle cx="23" cy="35.5" r="3.5" fill="#ffffff"></circle><path fill="#ffffff" d="M25.5692 15C21.5961 15 18.2307 17.36 17.5694 20C16.9748 22.3736 18.3603 24.4239 20.6671 24.378C21.2887 24.3657 21.8655 24.0884 22.4004 23.7716C23.2261 23.2825 24.5333 22.5247 25.5692 22C23.5352 23.1253 19.9001 24.7967 19.9001 27.2667L19.897 29.496C19.8951 30.8781 21.0149 31.9995 22.397 31.9995H23.5005C24.8809 31.9995 26 30.8805 26 29.5C29.6802 27.5246 32.5692 25.8415 32.5692 22C32.5692 18.5 30.4573 15 25.5692 15Z"></path><path stroke="#334155" stroke-linecap="round" stroke-linejoin="round" stroke-width="3" d="M3.58565 14.2362C3.79537 12.1032 5.25587 10.3881 7.37067 10.0397C10.3535 9.54832 15.5706 9 24 9C32.4294 9 37.6465 9.54832 40.6293 10.0397C42.7441 10.3881 44.2046 12.1032 44.4143 14.2362C44.6894 17.0334 45 21.4265 45 27C45 32.5735 44.6894 36.9666 44.4143 39.7638C44.2046 41.8968 42.7441 43.6119 40.6293 43.9603C37.6465 44.4517 32.4294 45 24 45C15.5706 45 10.3535 44.4517 7.37067 43.9603C5.25587 43.6119 3.79537 41.8968 3.58565 39.7638C3.31064 36.9666 3 32.5735 3 27C3 21.4265 3.31064 17.0334 3.58565 14.2362Z"></path><path stroke="#334155" stroke-linecap="round" stroke-linejoin="round" stroke-width="3" d="M17 9C17.3292 7.58921 18.0299 6.01918 18.578 4.91892C19.0381 3.99535 19.8894 3.34033 20.9117 3.20048C21.6901 3.094 22.7354 3 24 3C25.2646 3 26.3099 3.094 27.0883 3.20048C28.1106 3.34033 28.9619 3.99535 29.422 4.91892C29.9701 6.01918 30.6708 7.58921 31 9"></path><circle cx="23" cy="35.5" r="3.5" stroke="#334155" stroke-linecap="round" stroke-linejoin="round" stroke-width="3"></circle><path stroke="#334155" stroke-linecap="round" stroke-linejoin="round" stroke-width="3" d="M25.5692 15C21.5961 15 18.2307 17.36 17.5694 20C16.9748 22.3736 18.3603 24.4239 20.6671 24.378C21.2887 24.3657 21.8655 24.0884 22.4004 23.7716C23.2261 23.2825 24.5333 22.5247 25.5692 22C23.5352 23.1253 19.9001 24.7967 19.9001 27.2667L19.897 29.496C19.8951 30.8781 21.0149 31.9995 22.397 31.9995H23.5005C24.8809 31.9995 26 30.8805 26 29.5C29.6802 27.5246 32.5692 25.8415 32.5692 22C32.5692 18.5 30.4573 15 25.5692 15Z"></path></svg>